<svg xmlns="http://www.w3.org/2000/svg" xmlns:xlink="http://www.w3.org/1999/xlink" width="500" zoomAndPan="magnify" viewBox="0 0 375 374.999991" height="500" preserveAspectRatio="xMidYMid meet" version="1.0"><defs><filter x="0%" y="0%" width="100%" height="100%" id="39c005f944"><feColorMatrix values="0 0 0 0 1 0 0 0 0 1 0 0 0 0 1 0 0 0 1 0" color-interpolation-filters="sRGB"/></filter><clipPath id="cae9812b18"><path d="M 79.914062 66.214844 L 295.085938 66.214844 L 295.085938 316.6875 L 79.914062 316.6875 Z M 79.914062 66.214844 " clip-rule="nonzero"/></clipPath><clipPath id="688e119965"><path d="M 187.5 66.214844 L 295.085938 128.8125 L 295.085938 254 L 187.5 316.597656 L 79.914062 254 L 79.914062 128.8125 Z M 187.5 66.214844 " clip-rule="nonzero"/></clipPath><clipPath id="2b3d2052d8"><path d="M 0.914062 0.214844 L 216.085938 0.214844 L 216.085938 250.6875 L 0.914062 250.6875 Z M 0.914062 0.214844 " clip-rule="nonzero"/></clipPath><clipPath id="b5dbc00c6d"><path d="M 108.5 0.214844 L 216.085938 62.8125 L 216.085938 188 L 108.5 250.597656 L 0.914062 188 L 0.914062 62.8125 Z M 108.5 0.214844 " clip-rule="nonzero"/></clipPath><clipPath id="777e6d7733"><rect x="0" width="217" y="0" height="251"/></clipPath><mask id="943db194fe"><g filter="url(#39c005f944)"><rect x="-37.5" width="450" fill="#000000" y="-37.499999" height="449.999989" fill-opacity="0.48"/></g></mask><clipPath id="9a01f73d55"><path d="M 0.140625 1 L 112.640625 1 L 112.640625 129.90625 L 0.140625 129.90625 Z M 0.140625 1 " clip-rule="nonzero"/></clipPath><clipPath id="3d5f787cd4"><rect x="0" width="114" y="0" height="130"/></clipPath></defs><g clip-path="url(#cae9812b18)"><g clip-path="url(#688e119965)"><g transform="matrix(1, 0, 0, 1, 79, 66)"><g clip-path="url(#777e6d7733)"><g clip-path="url(#2b3d2052d8)"><g clip-path="url(#b5dbc00c6d)"><path fill="#8c52ff" d="M 0.914062 0.214844 L 216.085938 0.214844 L 216.085938 250.6875 L 0.914062 250.6875 Z M 0.914062 0.214844 " fill-opacity="1" fill-rule="nonzero"/></g></g></g></g></g></g><g mask="url(#943db194fe)"><g transform="matrix(1, 0, 0, 1, 131, 122)"><g clip-path="url(#3d5f787cd4)"><g clip-path="url(#9a01f73d55)"><path fill="#742da6" d="M 54.28125 129.285156 L 21.242188 110.203125 L 21.242188 100.234375 L 32.625 106.800781 L 56.496094 120.605469 L 104.191406 93.050781 L 104.191406 37.964844 L 56.496094 10.382812 L 8.804688 37.941406 L 8.804688 102.964844 L 2.3125 99.28125 C 0.949219 98.457031 0.152344 96.992188 0.152344 95.546875 L 0.152344 35.441406 C 0.152344 33.691406 1.179688 32.171875 2.699219 31.527344 L 54.386719 1.707031 C 55.75 0.90625 57.449219 0.957031 58.738281 1.707031 L 110.679688 31.734375 C 112.046875 32.53125 112.84375 34 112.84375 35.46875 L 112.84375 95.546875 C 112.84375 97.300781 111.8125 98.820312 110.347656 99.460938 L 58.6875 129.285156 C 57.269531 130.082031 55.597656 130.058594 54.28125 129.285156 Z M 54.28125 129.285156 " fill-opacity="1" fill-rule="nonzero"/></g><path fill="#742da6" d="M 52.632812 72.242188 L 56.523438 74.507812 L 64.328125 70.027344 L 64.328125 60.988281 L 56.496094 56.480469 L 48.746094 60.960938 L 48.746094 70 Z M 54.28125 83.1875 L 42.28125 76.183594 C 40.867188 75.433594 40.117188 73.96875 40.117188 72.449219 L 40.066406 72.449219 L 40.066406 58.488281 C 40.066406 56.6875 41.097656 55.21875 42.617188 54.523438 L 54.386719 47.75 C 55.75 46.953125 57.449219 47.003906 58.738281 47.75 L 70.789062 54.703125 C 72.15625 55.503906 72.953125 56.972656 72.953125 58.488281 L 72.953125 72.449219 C 72.953125 74.199219 71.921875 75.71875 70.402344 76.414062 L 58.6875 83.1875 C 57.269531 84.011719 55.597656 83.960938 54.28125 83.1875 Z M 54.28125 104.898438 L 40.042969 96.679688 L 40.042969 86.765625 L 43.210938 88.570312 L 56.496094 96.21875 L 83.101562 80.894531 L 83.101562 50.09375 L 56.496094 34.773438 L 29.921875 50.09375 L 29.921875 108.089844 L 21.242188 108.089844 L 21.242188 47.648438 C 21.242188 45.898438 22.273438 44.378906 23.792969 43.683594 L 54.386719 26.042969 C 55.75 25.242188 57.449219 25.292969 58.738281 26.09375 L 89.617188 43.914062 C 90.980469 44.710938 91.777344 46.128906 91.777344 47.648438 L 91.777344 83.339844 C 91.777344 85.09375 90.75 86.613281 89.230469 87.308594 L 58.6875 104.949219 C 57.269531 105.746094 55.597656 105.695312 54.28125 104.898438 Z M 54.28125 104.898438 " fill-opacity="1" fill-rule="nonzero"/></g></g></g></svg>