<svg xmlns="http://www.w3.org/2000/svg" xmlns:xlink="http://www.w3.org/1999/xlink" width="500" zoomAndPan="magnify" viewBox="0 0 375 374.999991" height="500" preserveAspectRatio="xMidYMid meet" version="1.0"><defs><filter x="0%" y="0%" width="100%" height="100%" id="da4b296a7b"><feColorMatrix values="0 0 0 0 1 0 0 0 0 1 0 0 0 0 1 0 0 0 1 0" color-interpolation-filters="sRGB"/></filter><g/><mask id="20cd06d0f8"><g filter="url(#da4b296a7b)"><rect x="-37.5" width="450" fill="#000000" y="-37.499999" height="449.999989" fill-opacity="0.48"/></g></mask><clipPath id="f634769e6c"><path d="M 0.140625 0.121094 L 112.640625 0.121094 L 112.640625 128.9375 L 0.140625 128.9375 Z M 0.140625 0.121094 " clip-rule="nonzero"/></clipPath><clipPath id="5d2c31ce42"><rect x="0" width="114" y="0" height="129"/></clipPath></defs><g fill="#00253b" fill-opacity="1"><g transform="translate(92.892816, 262.175594)"><g><path d="M 20.140625 -13.078125 L 25.515625 -13.078125 L 25.515625 -2.796875 C 24.128906 -1.753906 22.53125 -0.953125 20.71875 -0.390625 C 18.914062 0.160156 17.09375 0.4375 15.25 0.4375 C 12.625 0.4375 10.257812 -0.125 8.15625 -1.25 C 6.050781 -2.375 4.398438 -3.929688 3.203125 -5.921875 C 2.003906 -7.910156 1.40625 -10.164062 1.40625 -12.6875 C 1.40625 -15.195312 2.003906 -17.445312 3.203125 -19.4375 C 4.398438 -21.425781 6.0625 -22.984375 8.1875 -24.109375 C 10.3125 -25.234375 12.703125 -25.796875 15.359375 -25.796875 C 17.585938 -25.796875 19.601562 -25.421875 21.40625 -24.671875 C 23.21875 -23.921875 24.742188 -22.835938 25.984375 -21.421875 L 22.21875 -17.9375 C 20.40625 -19.84375 18.21875 -20.796875 15.65625 -20.796875 C 14.03125 -20.796875 12.585938 -20.457031 11.328125 -19.78125 C 10.078125 -19.101562 9.101562 -18.148438 8.40625 -16.921875 C 7.707031 -15.691406 7.359375 -14.28125 7.359375 -12.6875 C 7.359375 -11.113281 7.707031 -9.707031 8.40625 -8.46875 C 9.101562 -7.238281 10.070312 -6.28125 11.3125 -5.59375 C 12.5625 -4.90625 13.984375 -4.5625 15.578125 -4.5625 C 17.273438 -4.5625 18.796875 -4.925781 20.140625 -5.65625 Z M 20.140625 -13.078125 "/></g></g></g><g fill="#00253b" fill-opacity="1"><g transform="translate(131.692084, 262.175594)"><g><path d="M 26.09375 0 L 26.046875 -15.21875 L 18.59375 -2.6875 L 15.9375 -2.6875 L 8.515625 -14.890625 L 8.515625 0 L 3 0 L 3 -25.359375 L 7.859375 -25.359375 L 17.359375 -9.609375 L 26.703125 -25.359375 L 31.53125 -25.359375 L 31.59375 0 Z M 26.09375 0 "/></g></g></g><g fill="#00253b" fill-opacity="1"><g transform="translate(177.156322, 262.175594)"><g><path d="M 22.640625 -4.703125 L 22.640625 0 L 3 0 L 3 -25.359375 L 22.171875 -25.359375 L 22.171875 -20.65625 L 8.84375 -20.65625 L 8.84375 -15.140625 L 20.625 -15.140625 L 20.625 -10.578125 L 8.84375 -10.578125 L 8.84375 -4.703125 Z M 22.640625 -4.703125 "/></g></g></g><g fill="#00253b" fill-opacity="1"><g transform="translate(212.333318, 262.175594)"><g><path d="M 26.09375 0 L 26.046875 -15.21875 L 18.59375 -2.6875 L 15.9375 -2.6875 L 8.515625 -14.890625 L 8.515625 0 L 3 0 L 3 -25.359375 L 7.859375 -25.359375 L 17.359375 -9.609375 L 26.703125 -25.359375 L 31.53125 -25.359375 L 31.59375 0 Z M 26.09375 0 "/></g></g></g><g fill="#00253b" fill-opacity="1"><g transform="translate(257.797556, 262.175594)"><g><path d="M 22.640625 -4.703125 L 22.640625 0 L 3 0 L 3 -25.359375 L 22.171875 -25.359375 L 22.171875 -20.65625 L 8.84375 -20.65625 L 8.84375 -15.140625 L 20.625 -15.140625 L 20.625 -10.578125 L 8.84375 -10.578125 L 8.84375 -4.703125 Z M 22.640625 -4.703125 "/></g></g></g><g mask="url(#20cd06d0f8)"><g transform="matrix(1, 0, 0, 1, 131, 81)"><g clip-path="url(#5d2c31ce42)"><g clip-path="url(#f634769e6c)"><path fill="#742da6" d="M 54.28125 128.316406 L 21.242188 109.230469 L 21.242188 99.265625 L 32.625 105.832031 L 56.496094 119.636719 L 104.191406 92.082031 L 104.191406 36.996094 L 56.496094 9.414062 L 8.804688 36.96875 L 8.804688 101.996094 L 2.3125 98.3125 C 0.949219 97.488281 0.152344 96.019531 0.152344 94.578125 L 0.152344 34.472656 C 0.152344 32.722656 1.179688 31.203125 2.699219 30.558594 L 54.386719 0.734375 C 55.75 -0.0625 57.449219 -0.0117188 58.738281 0.734375 L 110.679688 30.761719 C 112.046875 31.5625 112.84375 33.03125 112.84375 34.496094 L 112.84375 94.578125 C 112.84375 96.332031 111.8125 97.847656 110.347656 98.492188 L 58.6875 128.316406 C 57.269531 129.113281 55.597656 129.085938 54.28125 128.316406 Z M 54.28125 128.316406 " fill-opacity="1" fill-rule="nonzero"/></g><path fill="#742da6" d="M 52.632812 71.273438 L 56.523438 73.539062 L 64.328125 69.058594 L 64.328125 60.019531 L 56.496094 55.511719 L 48.746094 59.992188 L 48.746094 69.03125 Z M 54.28125 82.21875 L 42.28125 75.210938 C 40.867188 74.464844 40.117188 73 40.117188 71.480469 L 40.066406 71.480469 L 40.066406 57.519531 C 40.066406 55.71875 41.097656 54.25 42.617188 53.554688 L 54.386719 46.78125 C 55.75 45.984375 57.449219 46.035156 58.738281 46.78125 L 70.789062 53.734375 C 72.15625 54.535156 72.953125 56 72.953125 57.519531 L 72.953125 71.480469 C 72.953125 73.230469 71.921875 74.75 70.402344 75.445312 L 58.6875 82.21875 C 57.269531 83.042969 55.597656 82.988281 54.28125 82.21875 Z M 54.28125 103.925781 L 40.042969 95.710938 L 40.042969 85.796875 L 43.210938 87.601562 L 56.496094 95.25 L 83.101562 79.925781 L 83.101562 49.125 L 56.496094 33.800781 L 29.921875 49.125 L 29.921875 107.121094 L 21.242188 107.121094 L 21.242188 46.679688 C 21.242188 44.925781 22.273438 43.410156 23.792969 42.714844 L 54.386719 25.074219 C 55.75 24.273438 57.449219 24.324219 58.738281 25.125 L 89.617188 42.945312 C 90.980469 43.742188 91.777344 45.160156 91.777344 46.679688 L 91.777344 82.371094 C 91.777344 84.125 90.75 85.644531 89.230469 86.339844 L 58.6875 103.980469 C 57.269531 104.777344 55.597656 104.726562 54.28125 103.925781 Z M 54.28125 103.925781 " fill-opacity="1" fill-rule="nonzero"/></g></g></g></svg>